<?xml version="1.0" standalone="yes"?>
<svg xmlns="http://www.w3.org/2000/svg" width="500" height="500">
<path style="fill:#ffffff; stroke:none;" d="M0 0L0 500L500 500L500 0L0 0z"/>
<path style="fill:#000000; stroke:none;" d="M13 38L13 50C31.9456 50 59.7271 51.1961 68.6867 71C72.6424 79.7435 73.2287 89.5959 74.169 99C76.1478 118.791 75 139.1 75 159L75 338C75 358.575 76.1255 379.532 74.1698 400C73.1603 410.565 72.7184 421.268 67.865 431C58.6711 449.436 30.8036 450 13 450L13 462L196 462L196 450C177.82 450 149.798 449.304 141.054 430C134.519 415.573 135 398.46 135 383L135 316L135 65L397 65C367.046 102.161 338.493 140.472 309 178C300.131 189.285 291.397 200.678 282.576 212C278.408 217.349 271.681 223.476 269.564 230C268.281 233.954 269 238.893 269 243L269 270L269 385C269 400.793 269.22 424.523 257.787 436.907C246.298 449.351 222.73 450 207 450L207 462L486 462L487 363L475 363C474.58 372.78 472.874 382.644 469.975 392C465.18 407.472 455.76 422.629 441 430.367C426.163 438.144 408.293 438 392 438L329 438L329 303L329 267C329 261.494 327.958 254.925 330.879 250C340.557 233.683 354.916 218.965 366.576 204C393.361 169.622 420.529 135.53 447.119 101C455.633 89.9439 464.366 79.0565 472.881 68C477.263 62.3107 484.415 56.013 486.487 49C487.501 45.5675 487 41.5427 487 38L13 38z"/>
</svg>
