<?xml version="1.0" encoding="utf-8"?>
<svg width="500" height="500" xmlns="http://www.w3.org/2000/svg">
  <defs>
    <linearGradient gradientUnits="userSpaceOnUse" x1="-15.437" y1="-249.188" x2="-15.437" y2="250.812" id="gradient-0" gradientTransform="matrix(0, 1.003344, -1.003344, 0, 250.253143, -1.630447)">
      <stop offset="0" style="stop-color: rgb(8, 0, 255);"/>
      <stop offset="1" style="stop-color: rgb(0, 0, 128);"/>
    </linearGradient>
    <linearGradient gradientUnits="userSpaceOnUse" x1="-15.437" y1="-249.188" x2="-15.437" y2="250.812" id="gradient-1" gradientTransform="matrix(0, 0.525738, -0.525738, 0, 130.464111, -9.003387)">
      <stop offset="0" style="stop-color: rgb(0, 255, 0);"/>
      <stop offset="1" style="stop-color: rgb(0, 192, 0);"/>
    </linearGradient>
    <linearGradient gradientUnits="userSpaceOnUse" x1="-15.437" y1="-249.188" x2="-15.437" y2="250.812" id="gradient-2" gradientTransform="matrix(0, -0.481337, 0.481337, 0, 381.414978, -24.549591)">
      <stop offset="0" style=""/>
      <stop offset="1" style="stop-color: rgb(64, 0, 0);"/>
    </linearGradient>
  </defs>
  <path style="stroke: none; paint-order: fill;" d="M 0 0 L 0 500 L 500 500 L 500 0 L 0 0 Z" transform="matrix(0, -1, 1, 0, 0, 500)">
    <title>black</title>
  </path>
  <path style="stroke: none; fill: url(#gradient-0); fill-rule: nonzero; mix-blend-mode: lighten;" d="M 0 0 L 0 500 L 500 500 L 500 0 L 0 0 Z">
    <title>blue</title>
  </path>
  <path style="stroke: none; fill: url(#gradient-1); paint-order: fill; mix-blend-mode: lighten;" d="M 0 0 L 0 500 L 500 500 L 500 0 L 0 0 Z" transform="matrix(0, -1, 1, 0, 0, 500)">
    <title>green</title>
  </path>
  <path style="stroke: none; paint-order: fill; fill: url(#gradient-2); mix-blend-mode: lighten;" d="M 0 0 L 0 500 L 500 500 L 500 0 L 0 0 Z" transform="matrix(0, -1, 1, 0, 0, 500)">
    <title>red</title>
  </path>
  <path style="fill: rgb(0, 0, 0); stroke: none;" d="M 47 68 L 47 78.301 C 63.264 78.301 87.112 79.328 94.803 96.328 C 98.198 103.834 98.702 112.291 99.509 120.364 C 101.208 137.353 101.189 361.18 99.51 378.75 C 98.643 387.819 98.263 397.007 94.098 405.361 C 86.205 421.187 62.283 421.671 47 421.671 L 47 431.972 L 204.092 431.972 L 204.092 421.671 C 188.486 421.671 164.431 421.074 156.925 404.503 C 151.315 392.118 151.728 377.428 151.728 364.157 L 151.728 91.177 L 376.635 91.177 C 350.922 123.077 285.983 207.647 278.411 217.366 C 274.833 221.958 269.058 227.217 267.241 232.818 C 266.14 236.212 266.757 240.452 266.757 243.977 L 266.757 365.874 C 266.757 379.431 266.946 399.801 257.131 410.432 C 247.269 421.114 227.038 421.671 213.535 421.671 L 213.535 431.972 L 453.035 431.972 L 453.894 346.988 L 443.593 346.988 C 443.232 355.384 441.768 363.851 439.279 371.883 C 435.163 385.164 427.077 398.175 414.406 404.818 C 401.67 411.494 386.33 411.37 372.343 411.37 L 318.263 411.37 L 318.263 264.579 C 318.263 259.853 317.368 254.214 319.875 249.986 C 328.183 235.979 340.509 223.345 350.519 210.499 C 373.512 180.988 434.464 103.244 441.774 93.753 C 445.535 88.869 451.675 83.463 453.453 77.443 C 454.324 74.497 453.894 71.041 453.894 68 L 47 68 Z">
    <title>symbol</title>
  </path>
</svg>